<?xml version="1.0" ?><svg data-name="Social Media Icons" id="Social_Media_Icons" viewBox="0 0 512 512" xmlns="http://www.w3.org/2000/svg"><defs><style>.cls-1{fill:#00b5ea;}</style></defs><path class="cls-1" d="M0,157.46l17.55,21.92a6.07,6.07,0,0,0,8.1,1.25l29.28-19.51s24.65-12.33,43.14,43.14S148.41,415.89,182.31,457s85.19,16.43,85.19,16.43A722.34,722.34,0,0,0,405.24,346c14.24-17.16,119.25-146,105.53-244.18-1.48-10.56-4.88-32.66-22.19-49.41C465.31,29.93,431.35,31,421.46,31.37c-4.2.13-23.59,1.29-48.19,12.52C325.36,65.76,304.42,116,295.63,141.4a6.06,6.06,0,0,0,7,7.9c20.8-4.35,65.25-9.18,60.51,30.31-5.81,48.42-39,115.09-75.5,138.93a12,12,0,0,1-14.32-.86c-9.13-7.8-24.21-27.87-32.43-78.12-9.53-58.23-17.83-108.27-21.11-128a114,114,0,0,0-10.87-33.36c-10.78-21-32-46.81-69.41-38a74.64,74.64,0,0,0-31.54,16.39L.77,149.08C.51,151.87.26,154.67,0,157.46Z" id="Vimeo"/></svg>